<?xml version="1.0" encoding="UTF-8" standalone="no"?>
<!-- Created with Inkscape (http://www.inkscape.org/) -->

<svg
   width="28.686703"
   height="30.15193"
   viewBox="0 0 7.5900233 7.977698"
   version="1.1"
   id="svg26943"
   xmlns="http://www.w3.org/2000/svg"
   xmlns:svg="http://www.w3.org/2000/svg">
  <defs
     id="defs26940" />
  <g
     id="layer1"
     transform="translate(-0.56399019,-0.2241568)">
    <path
       style="fill:#850e30;fill-opacity:1;stroke-width:0.0362704"
       d="M 2.6963328,8.160014 C 2.0453487,8.0815613 1.4341726,7.8584203 1.072687,7.567214 0.97444889,7.4880781 0.82471919,7.3197109 0.73995536,7.1930739 0.55314101,6.8467786 0.4846591,6.5175216 0.68662885,6.1887585 0.90351634,5.8415554 1.404403,5.6318127 1.9344399,5.6662454 2.5547227,5.7065358 2.913544,6.0366152 2.8699746,6.5268276 2.8552729,6.6922036 2.8230017,6.7576575 2.662039,6.9485083 2.4962006,7.1451432 2.4716962,7.196525 2.4729852,7.3449256 2.473848,7.4405349 2.504697,7.556162 2.5432844,7.6081638 2.7999398,7.954031 3.4007553,8.0890203 3.8962185,7.9121392 4.2575344,7.7831494 4.4437694,7.5852639 4.5742861,7.1916552 4.6436374,6.9825062 4.6514863,6.7014296 4.6655325,3.92394 4.6792169,1.2184069 4.6735162,0.87120637 4.6135878,0.75878202 4.4939339,0.53432612 4.2354606,0.42054737 3.759811,0.38295392 3.5319156,0.36494343 3.4967894,0.35347504 3.4848447,0.29322989 l -0.013687,-0.0690731 h 2.3414279 2.3414281 l -0.013687,0.0690731 c -0.012136,0.0611385 -0.047123,0.0717267 -0.3046543,0.0920887 -0.4420376,0.03497 -0.6548487,0.1275973 -0.8287669,0.36073134 C 6.930704,0.84820129 6.9256708,0.99520026 6.9049532,3.7239591 6.8949706,5.9474677 7.1123939,7.5191709 4.8932278,8.073959 4.3750621,8.2010046 3.3648697,8.2405764 2.6963306,8.1600048 Z"
       id="path17234" />
  </g>
</svg>
