<?xml version="1.0" encoding="UTF-8" standalone="no"?>
<!-- Created with Inkscape (http://www.inkscape.org/) -->

<svg
   width="32"
   height="32"
   viewBox="0 0 8.4666665 8.4666666"
   version="1.1"
   id="svg26943"
   sodipodi:docname="favicon.svg"
   inkscape:export-filename="favicon.svg"
   inkscape:export-xdpi="96"
   inkscape:export-ydpi="96"
   inkscape:version="1.2.2 (732a01da63, 2022-12-09)"
   xmlns:inkscape="http://www.inkscape.org/namespaces/inkscape"
   xmlns:sodipodi="http://sodipodi.sourceforge.net/DTD/sodipodi-0.dtd"
   xmlns="http://www.w3.org/2000/svg"
   xmlns:svg="http://www.w3.org/2000/svg">
  <sodipodi:namedview
     id="namedview6"
     pagecolor="#ffffff"
     bordercolor="#000000"
     borderopacity="0.25"
     inkscape:showpageshadow="2"
     inkscape:pageopacity="0.0"
     inkscape:pagecheckerboard="0"
     inkscape:deskcolor="#d1d1d1"
     showgrid="false"
     inkscape:zoom="22.138178"
     inkscape:cx="12.489736"
     inkscape:cy="11.518563"
     inkscape:window-width="2560"
     inkscape:window-height="1529"
     inkscape:window-x="632"
     inkscape:window-y="2152"
     inkscape:window-maximized="1"
     inkscape:current-layer="svg26943" />
  <defs
     id="defs26940" />
  <path
     style="fill:#850e30;fill-opacity:1;stroke-width:0.00915657"
     d="M 2.2490145,7.6956973 C 1.7421577,7.6609923 1.2701512,7.4942792 0.98380139,7.2488376 0.74908525,7.0476511 0.60146001,6.7415684 0.60137315,6.4559161 0.60134042,6.346023 0.61696521,6.2683672 0.65838873,6.172638 0.80769149,5.8275818 1.2485293,5.6400681 1.6682813,5.7430696 c 0.030656,0.00759 0.093627,0.031723 0.1399663,0.053798 0.1409792,0.067132 0.2393044,0.177506 0.289108,0.3244962 0.021927,0.064706 0.024773,0.087576 0.025454,0.2037254 0.00102,0.1754875 -0.012216,0.2160593 -0.1245974,0.3823464 -0.046334,0.068558 -0.09233,0.1400418 -0.1022176,0.1588572 -0.027821,0.052946 -0.038653,0.1393196 -0.027871,0.2221057 0.013111,0.1006328 0.031057,0.1461531 0.08165,0.2071423 0.1822581,0.219678 0.5179858,0.304029 0.8102979,0.2035867 C 3.0181091,7.410457 3.1644194,7.2449465 3.2555293,6.9386416 3.2892944,6.8251381 3.2979104,6.718547 3.3089937,6.2775913 3.3239807,5.6810117 3.325505,2.0470696 3.3107493,1.9505367 3.2962597,1.855367 3.2578842,1.7833275 3.1892064,1.722381 3.0919014,1.6360262 2.9631629,1.5913765 2.7254115,1.5615608 2.5935799,1.5450786 2.5466225,1.5335597 2.5460809,1.5178 2.5459752,1.51428 2.5421809,1.496132 2.5377709,1.477521 l -0.00806,-0.033834 h 1.5545807 c 1.475589,0 1.5544232,7.61e-4 1.5513701,0.015742 -0.011332,0.055835 -0.015731,0.065872 -0.032343,0.074503 -0.010203,0.00537 -0.084346,0.017779 -0.1648268,0.027631 -0.2314051,0.0285 -0.3473361,0.066503 -0.4414774,0.1446716 -0.065139,0.054094 -0.1281403,0.1445049 -0.142949,0.2051458 -0.021361,0.087503 -0.030857,0.4349574 -0.036398,1.3323232 -0.00478,0.7693465 -0.00731,0.8845931 -0.023287,1.0306702 -0.00983,0.090466 -0.017934,0.2183574 -0.017934,0.2842226 7.4e-6,0.1143005 0.00126,0.122356 0.027846,0.1769135 0.016588,0.034038 0.032557,0.055631 0.039483,0.053391 0.00806,-0.00259 0.015025,-0.049243 0.02267,-0.1518941 0.00744,-0.098874 0.018955,-0.1781171 0.034849,-0.2383544 0.022191,-0.084076 0.077721,-0.211322 0.110151,-0.2524568 0.013301,-0.016851 0.014446,-0.015371 0.020579,0.027075 0.013791,0.095374 0.041789,0.2245317 0.050503,0.2329968 0.013954,0.01352 0.026411,-0.027335 0.04733,-0.1551349 0.022217,-0.1357269 0.037531,-0.1850433 0.081398,-0.2620608 0.058149,-0.102096 0.2441494,-0.3161941 0.4200416,-0.4835053 0.086361,-0.082152 0.095744,-0.088651 0.1067893,-0.073965 0.00668,0.00888 0.033501,0.072298 0.059635,0.1410048 0.026134,0.068706 0.069999,0.1783024 0.097481,0.243536 L 5.9451568,3.9347564 5.7764585,4.1261091 C 5.4035448,4.5490995 5.1294067,4.9006354 4.846198,5.3190071 4.7140451,5.5142304 4.5482233,5.8024384 4.4915079,5.9354817 4.4274018,6.0858572 4.4725531,6.0408188 4.6843876,5.7430845 4.7726624,5.6190246 4.8936816,5.444041 4.953328,5.3542434 5.196582,4.9880236 5.5415792,4.5405046 5.8534556,4.1866278 6.1377135,3.864089 6.3480831,3.6486743 6.8283491,3.1883568 7.0413434,2.9842091 7.2126098,2.8141422 7.2089385,2.8104328 7.1788124,2.7799875 6.4397672,3.419624 6.1303985,3.7439091 L 5.9803287,3.9012107 5.9558451,3.8476719 C 5.9238676,3.777725 5.8111405,3.4522509 5.8033686,3.4074069 5.7974491,3.3731465 5.7985825,3.3713872 5.875132,3.2991254 6.10178,3.0851478 6.6030512,2.727006 6.8903909,2.5737543 7.1847382,2.4167676 7.3985184,2.3575896 7.6384084,2.3666974 c 0.2529165,0.00963 0.4271801,0.08578 0.4859033,0.2124314 0.039371,0.084911 0.016624,0.2335078 -0.055403,0.3619048 C 7.9701173,3.1171507 7.6896881,3.4576475 7.4342679,3.7116135 7.2595041,3.8853786 7.1597747,3.9648573 7.0576483,4.0117405 6.9241278,4.0730388 6.8953897,4.0754462 6.5811343,4.0515936 6.4328365,4.040297 6.3062958,4.0328152 6.2999292,4.0349264 c -0.012468,0.00408 0.1301025,0.034464 0.2652352,0.056595 0.139712,0.022872 0.2449063,0.031852 0.3740088,0.031927 l 0.1231238,7.59e-5 v 0.027316 c 0,0.083373 -0.1676064,0.2917378 -0.3126044,0.3886095 -0.069068,0.046149 -0.139154,0.070892 -0.2714743,0.095836 -0.069723,0.013149 -0.1285559,0.025224 -0.1307385,0.026853 -0.00579,0.00426 0.026827,0.026872 0.064207,0.044483 0.025555,0.012037 0.05553,0.015001 0.1424716,0.013704 l 0.1101017,-0.00161 -0.020101,0.027408 c -0.011079,0.015001 -0.054258,0.055114 -0.096009,0.088984 C 6.4226461,4.936889 6.31822,4.999095 6.1687712,5.0610952 c -0.1173933,0.048706 -0.1734527,0.062094 -0.3423324,0.081798 -0.1517234,0.017779 -0.1990887,0.029353 -0.1928734,0.047465 0.00516,0.015186 0.048539,0.022482 0.1737738,0.029131 0.1840825,0.00981 0.2092011,0.01865 0.1496642,0.052799 -0.073123,0.041945 -0.1825383,0.065095 -0.3944823,0.083503 C 5.306751,5.3779998 5.2335355,5.4021673 5.1469873,5.4929297 4.9721655,5.6762878 4.8939916,5.848638 4.8367092,6.1770122 4.7859409,6.4680165 4.7380062,6.618679 4.6413521,6.7909016 4.4292205,7.1689089 4.044917,7.4380107 3.484817,7.6007402 3.1991259,7.6837431 2.6687628,7.7245407 2.2489616,7.6957805 Z"
     id="path30269" />
</svg>
