<?xml version="1.0" encoding="UTF-8"?>
<svg id="Calque_2" data-name="Calque 2" xmlns="http://www.w3.org/2000/svg" viewBox="0 0 170.5 154.42">
  <defs>
    <style>
      .cls-1 {
        fill: #e08b3b;
      }

      .cls-2 {
        fill: #5b0601;
      }

      .cls-3 {
        fill: #ce4e41;
      }

      .cls-4 {
        fill: #01567d;
      }

      .cls-5 {
        fill: #c95103;
      }
    </style>
  </defs>
  <g id="Logo_signature" data-name="Logo + signature">
    <g>
      <path class="cls-4" d="M130.95,53.54c.16,2.12,1.28,1.27,2.44.16,3.09-2.95,6.13-5.96,9.33-8.8,3.08-2.74,5.81-5.77,8.61-8.78,2.46-2.64,4.97-5.78,5.25-9.56.04-3.56-3.02-5.55-6.28-5.97-3.66-.47-6.45,3.27-8.56,5.7-5.24,6.07-7.92,13.46-9.63,21.22-.4,1.82-1.31,4.15-1.17,6.02Z"/>
      <path class="cls-4" d="M138.68,60.69c-2.43,3.37,3.96,1.61,5.52,1.32,3.6-.67,7.2-1.78,10.71-2.8,3.15-.92,6.39-2.22,9.12-4.08,2.23-1.52,5.08-4.66,4.79-7.6.21-2.83-1.56-5-4.25-5.66-3.63-.9-7.39,1.09-10.15,3.29-3.1,2.48-5.93,5.36-8.82,8.07-2.42,2.27-4.96,4.76-6.92,7.46Z"/>
      <path class="cls-4" d="M119.06,46.71c.13.76.13,2.91,1.08,2.89.55-.01,1.5-2.5,1.7-2.88,2.71-5.04,6.99-10.6,6.96-16.55.04-2.21-.25-5.1-1.79-6.82-1.74-1.94-4.93-2.03-7.11-.77-5.13,2.97-3.85,10.14-2.76,14.77.73,3.1,1.38,6.2,1.94,9.34Z"/>
      <path class="cls-4" d="M170.44,69.79c-.62-4.88-8.4-4.53-11.83-3.84-2.61.53-5.09,1.69-7.56,2.69-1.07.43-5.3,1.54-3.98,2.98.53.59,2.81,1.01,3.5,1.28,1.27.49,2.54.99,3.81,1.46,2.47.92,4.97,1.66,7.62,1.76,3.6-.61,9.08-1.27,8.43-6.33Z"/>
      <path class="cls-4" d="M114.56,59.2c-3.23-2.33-6.54-4.68-10.37-5.9-2.03-.65-4.11-.98-6.22-1.24-1.03-.13-4.65.12-5.3-.61-.59-.67.78-3.9.93-4.7.28-1.54.33-3.08.3-4.63-.1-5.32-1.04-10.6-2.77-15.64-.06-.18-.13-.36-.19-.54C85.64,10.93,67.96-.67,52.04.03c-6.4.28-12.8.67-19.2,1.07-4.07.25-8.15.39-12.2.77-3.93.36-9.3.03-12.82,2.01C.77,7.83.38,16.9,0,23.99c0,.18-.01.35,0,.52l2.92,116.45c.19,3.42,1.12,6.58,3.52,9.12,2.77,2.93,6.04,3.53,9.9,3.88,4.38.4,8.65.41,13.03.46l48.54-.81c.95-.05,1.89-.11,2.83-.18h0c2.8-.22,5.55-.6,8.31-1.36,8.08-2.23,15.58-4.99,22.39-10.01,6.55-4.83,12.12-11.12,16.06-18.24,8.03-14.53,9.33-32.72,1.81-47.72-3.46-6.9-8.52-12.39-14.76-16.9ZM44.81,134.4c-5.29,0-10.55.07-15.84-.21-1.89-.1-4.56.24-6.35-.38,0,0,0,0,0,0-.3-.1-.54-.25-.75-.44-.2-.19-.36-.41-.48-.65-.15-.29-.24-.62-.31-.97-.13-.7-.13-1.46-.13-2.15,0-.23,0-.45,0-.66-.11-3.89-.13-7.78-.14-11.67,0-1.3,0-2.6,0-3.91,0-3.89-.03-7.79-.16-11.68-.04-1.3-.1-2.59-.16-3.89-.2-3.87-.4-7.74-.57-11.61-.06-1.29-.11-2.58-.16-3.88-.2-5.17-.33-10.34-.34-15.5-.02-10.29-.03-20.57-.04-30.86,0-2.36-.46-7.39.84-10.35.43-.98,1.06-1.74,1.96-2.08,1.75-.67,3.62-1.16,5.53-1.52,3.19-.61,6.5-.87,9.59-1.09,9.41-.65,20.46-1.1,28.11,5.41,2.75,2.33,4.7,5.25,5.91,8.44.8,2.13,1.27,4.38,1.41,6.68.04.57.05,1.15.04,1.72,0,.58-.03,1.15-.08,1.73-.18,2.31-.69,4.6-1.5,6.8-1.74,4.7-4.84,8.91-8.72,12.07-2.35,1.91-4.87,3.11-7.5,4.13-.58.23-1.17.44-1.77.66-.59.21-1.19.43-1.8.64-.9.32-1.82.65-2.74,1.01-.35.13-.68.29-1,.46-.31.18-.6.37-.85.59-.25.22-.45.47-.6.73-.34.63-.37,1.4.12,2.32.15.28.33.52.54.74.21.21.45.4.71.56.52.32,1.13.53,1.77.67.16.04.32.07.48.1.48.08.96.13,1.44.16.66.04,1.3.05,1.85.06h0c2.53.05,5.05-.22,7.57-.62.36-.06.72-.12,1.08-.18,1.44-.25,2.87-.53,4.3-.81,1.43-.28,2.88-.43,4.26-.81,3.51-.96,2.91-2.86,7.38-4.22.34-.1,7.1-1.7,9.69-1.58.77.04,1.53.21,2.29.37s1.5.34,2.24.55c.71.2,1.41.44,2.1.7,2.06.79,2.86,1.08,4.66,2.34,3.19,2.24,7.05,5.9,9.13,9.22.52.83,1,1.69,1.44,2.56.87,1.75,1.58,3.55,2.14,5.4.19.62.36,1.23.51,1.86.6,2.47.94,4.99,1.03,7.52,0,.03,0,.06,0,.09.13,4.15-.44,8.31-1.66,12.26-.49,1.58-1.08,3.13-1.78,4.63-.35.75-.72,1.49-1.12,2.22-.49.89-1.02,1.77-1.59,2.62-.57.85-1.17,1.67-1.82,2.47-.62.77-1.28,1.51-1.96,2.23-.03.03-.05.06-.08.08,0,0-.01.01-.02.02-1,1.04-2.09,2.01-3.23,2.92-.08.06-.15.12-.23.18-.12.09-.25.18-.37.27-.78.59-1.58,1.14-2.41,1.65-.96.58-1.95,1.11-2.97,1.59-1.02.47-2.06.89-3.13,1.25-1.06.36-2.15.66-3.25.9-.58.13-1.17.23-1.76.31s-1.2.14-1.8.19c-.91.07-1.82.11-2.71.15-.3.01-.6.02-.89.03-.09,0-.19,0-.3.01-.21.01-.44.03-.69.04-.25.02-.51.03-.78.04-.13,0-.27,0-.41.01h0M76.61,132.8h0"/>
    </g>
    <path class="cls-2" d="M117.4,59.2c-3.23-2.33-6.54-4.68-10.37-5.9-2.03-.65-4.11-.98-6.22-1.24-1.03-.13-4.65.12-5.3-.61-.59-.67.78-3.9.93-4.7.28-1.54.33-3.08.3-4.63-.1-5.32-1.04-10.6-2.77-15.64-.06-.18-.13-.36-.19-.54C88.48,10.93,70.81-.67,54.88.03c-6.4.28-12.8.67-19.2,1.07-4.07.25-8.15.39-12.2.77-3.93.36-9.3.03-12.82,2.01C3.61,7.83,3.22,16.9,2.85,23.99c0,.18-.01.35,0,.52l2.92,116.45c.19,3.42,1.12,6.58,3.52,9.12,2.77,2.93,6.04,3.53,9.9,3.88,4.38.4,8.65.41,13.03.46l48.54-.81c.95-.05,1.89-.11,2.83-.18h0c2.8-.22,5.55-.6,8.31-1.36,8.08-2.23,15.58-4.99,22.39-10.01,6.55-4.83,12.12-11.12,16.06-18.24,8.03-14.53,9.33-32.72,1.81-47.72-3.46-6.9-8.52-12.39-14.76-16.9ZM47.65,134.4c-5.29,0-10.55.07-15.84-.21-1.89-.1-4.56.24-6.35-.38,0,0,0,0,0,0-.3-.1-.54-.25-.75-.44-.2-.19-.36-.41-.48-.65-.15-.29-.24-.62-.31-.97-.13-.7-.13-1.46-.13-2.15,0-.23,0-.45,0-.66-.11-3.89-.13-7.78-.14-11.67,0-1.3,0-2.6,0-3.91,0-3.89-.03-7.79-.16-11.68-.04-1.3-.1-2.59-.16-3.89-.2-3.87-.4-7.74-.57-11.61-.06-1.29-.11-2.58-.16-3.88-.2-5.17-.33-10.34-.34-15.5-.02-10.29-.03-20.57-.04-30.86,0-2.36-.46-7.39.84-10.35.43-.98,1.06-1.74,1.96-2.08,1.75-.67,3.62-1.16,5.53-1.52,3.19-.61,6.5-.87,9.59-1.09,9.41-.65,20.46-1.1,28.11,5.41,2.75,2.33,4.7,5.25,5.91,8.44.8,2.13,1.27,4.38,1.41,6.68.04.57.05,1.15.04,1.72,0,.58-.03,1.15-.08,1.73-.18,2.31-.69,4.6-1.5,6.8-1.74,4.7-4.84,8.91-8.72,12.07-2.35,1.91-4.87,3.11-7.5,4.13-.58.23-1.17.44-1.77.66-.59.21-1.19.43-1.8.64-.9.32-1.82.65-2.74,1.01-.35.13-.68.29-1,.46-.31.18-.6.37-.85.59-.25.22-.45.47-.6.73-.34.63-.37,1.4.12,2.32.15.28.33.52.54.74.21.21.45.4.71.56.52.32,1.13.53,1.77.67.16.04.32.07.48.1.48.08.96.13,1.44.16.66.04,1.3.05,1.85.06h0c2.53.05,5.05-.22,7.57-.62.36-.06.72-.12,1.08-.18,1.44-.25,2.87-.53,4.3-.81,1.43-.28,2.88-.43,4.26-.81,3.51-.96,2.91-2.86,7.38-4.22.34-.1,7.1-1.7,9.69-1.58.77.04,1.53.21,2.29.37s1.5.34,2.24.55c.71.2,1.41.44,2.1.7,2.06.79,2.86,1.08,4.66,2.34,3.19,2.24,7.05,5.9,9.13,9.22.52.83,1,1.69,1.44,2.56.87,1.75,1.58,3.55,2.14,5.4.19.62.36,1.23.51,1.86.6,2.47.94,4.99,1.03,7.52,0,.03,0,.06,0,.09.13,4.15-.44,8.31-1.66,12.26-.49,1.58-1.08,3.13-1.78,4.63-.35.75-.72,1.49-1.12,2.22-.49.89-1.02,1.77-1.59,2.62-.57.85-1.17,1.67-1.82,2.47-.62.77-1.28,1.51-1.96,2.23-.03.03-.05.06-.08.08,0,0-.01.01-.02.02-1,1.04-2.09,2.01-3.23,2.92-.08.06-.15.12-.23.18-.12.09-.25.18-.37.27-.78.59-1.58,1.14-2.41,1.65-.96.58-1.95,1.11-2.97,1.59-1.02.47-2.06.89-3.13,1.25-1.06.36-2.15.66-3.25.9-.58.13-1.17.23-1.76.31s-1.2.14-1.8.19c-.91.07-1.82.11-2.71.15-.3.01-.6.02-.89.03-.09,0-.19,0-.3.01-.21.01-.44.03-.69.04-.25.02-.51.03-.78.04-.13,0-.27,0-.41.01h0M79.45,132.8h0"/>
    <path class="cls-3" d="M120.81,59.2c-3.23-2.33-6.54-4.68-10.37-5.9-2.03-.65-4.11-.98-6.22-1.24-1.03-.13-4.65.12-5.3-.61-.59-.67.78-3.9.93-4.7.28-1.54.33-3.08.3-4.63-.1-5.32-1.04-10.6-2.77-15.64-.06-.18-.13-.36-.19-.54C91.89,10.93,74.21-.67,58.29.03c-6.4.28-12.8.67-19.2,1.07-4.07.25-8.15.39-12.2.77-3.93.36-9.3.03-12.82,2.01-7.05,3.96-7.45,13.03-7.81,20.12,0,.18-.01.35,0,.52l2.92,116.45c.19,3.42,1.12,6.58,3.52,9.12,2.77,2.93,6.04,3.53,9.9,3.88,4.38.4,8.65.41,13.03.46l48.54-.81c.95-.05,1.89-.11,2.83-.18h0c2.8-.22,5.55-.6,8.31-1.36,8.08-2.23,15.58-4.99,22.39-10.01,6.55-4.83,12.12-11.12,16.06-18.24,8.03-14.53,9.33-32.72,1.81-47.72-3.46-6.9-8.52-12.39-14.76-16.9ZM51.05,134.4c-5.29,0-10.55.07-15.84-.21-1.89-.1-4.56.24-6.35-.38,0,0,0,0,0,0-.3-.1-.54-.25-.75-.44-.2-.19-.36-.41-.48-.65-.15-.29-.24-.62-.31-.97-.13-.7-.13-1.46-.13-2.15,0-.23,0-.45,0-.66-.11-3.89-.13-7.78-.14-11.67,0-1.3,0-2.6,0-3.91,0-3.89-.03-7.79-.16-11.68-.04-1.3-.1-2.59-.16-3.89-.2-3.87-.4-7.74-.57-11.61-.06-1.29-.11-2.58-.16-3.88-.2-5.17-.33-10.34-.34-15.5-.02-10.29-.03-20.57-.04-30.86,0-2.36-.46-7.39.84-10.35.43-.98,1.06-1.74,1.96-2.08,1.75-.67,3.62-1.16,5.53-1.52,3.19-.61,6.5-.87,9.59-1.09,9.41-.65,20.46-1.1,28.11,5.41,2.75,2.33,4.7,5.25,5.91,8.44.8,2.13,1.27,4.38,1.41,6.68.04.57.05,1.15.04,1.72,0,.58-.03,1.15-.08,1.73-.18,2.31-.69,4.6-1.5,6.8-1.74,4.7-4.84,8.91-8.72,12.07-2.35,1.91-4.87,3.11-7.5,4.13-.58.23-1.17.44-1.77.66-.59.21-1.19.43-1.8.64-.9.32-1.82.65-2.74,1.01-.35.13-.68.29-1,.46-.31.18-.6.37-.85.59-.25.22-.45.47-.6.73-.34.63-.37,1.4.12,2.32.15.28.33.52.54.74.21.21.45.4.71.56.52.32,1.13.53,1.77.67.16.04.32.07.48.1.48.08.96.13,1.44.16.66.04,1.3.05,1.85.06h0c2.53.05,5.05-.22,7.57-.62.36-.06.72-.12,1.08-.18,1.44-.25,3-.79,4.34-1.06,1.43-.28,10.72-4.53,12.1-4.91,3.51-.96-4.97,1.48-.5.12.34-.1,5.18-1.6,7.77-1.48.77.04,3.46.11,4.22.27s1.5.34,2.24.55c.71.2,1.41.44,2.1.7,2.06.79,2.86,1.08,4.66,2.34,3.19,2.24,7.05,5.9,9.13,9.22.52.83,1,1.69,1.44,2.56.87,1.75,1.58,3.55,2.14,5.4.19.62.36,1.23.51,1.86.6,2.47.94,4.99,1.03,7.52,0,.03,0,.06,0,.09.13,4.15-.44,8.31-1.66,12.26-.49,1.58-1.08,3.13-1.78,4.63-.35.75-.72,1.49-1.12,2.22-.49.89-1.02,1.77-1.59,2.62-.57.85-1.17,1.67-1.82,2.47-.62.77-1.28,1.51-1.96,2.23-.03.03-.05.06-.08.08,0,0-.01.01-.02.02-1,1.04-2.09,2.01-3.23,2.92-.08.06-.15.12-.23.18-.12.09-.25.18-.37.27-.78.59-1.58,1.14-2.41,1.65-.96.58-1.95,1.11-2.97,1.59-1.02.47-2.06.89-3.13,1.25-1.06.36-2.15.66-3.25.9-.58.13-1.17.23-1.76.31s-1.2.14-1.8.19c-.91.07-1.82.11-2.71.15-.3.01-.6.02-.89.03-.09,0-.19,0-.3.01-.21.01-.44.03-.69.04-.25.02-.51.03-.78.04-.13,0-.27,0-.41.01h0M82.85,132.8h0"/>
    <path class="cls-1" d="M124.02,59.2c-3.23-2.33-6.54-4.68-10.37-5.9-2.03-.65-4.11-.98-6.22-1.24-1.03-.13-4.65.12-5.3-.61-.59-.67.78-3.9.93-4.7.28-1.54.33-3.08.3-4.63-.1-5.32-1.04-10.6-2.77-15.64-.06-.18-.13-.36-.19-.54C95.1,10.93,77.42-.67,61.5.03c-6.4.28-12.8.67-19.2,1.07-4.07.25-8.15.39-12.2.77-3.93.36-9.3.03-12.82,2.01-7.05,3.96-7.45,13.03-7.81,20.12,0,.18-.01.35,0,.52l2.92,116.45c.19,3.42,1.12,6.58,3.52,9.12,2.77,2.93,6.04,3.53,9.9,3.88,4.38.4,8.65.41,13.03.46l48.54-.81c.95-.05,1.89-.11,2.83-.18h0c2.8-.22,5.55-.6,8.31-1.36,8.08-2.23,15.58-4.99,22.39-10.01,6.55-4.83,12.12-11.12,16.06-18.24,8.03-14.53,9.33-32.72,1.81-47.72-3.46-6.9-8.52-12.39-14.76-16.9ZM54.27,134.4c-5.29,0-10.55.07-15.84-.21-1.89-.1-4.56.24-6.35-.38,0,0,0,0,0,0-.3-.1-.54-.25-.75-.44-.2-.19-.36-.41-.48-.65-.15-.29-.24-.62-.31-.97-.13-.7-.13-1.46-.13-2.15,0-.23,0-.45,0-.66-.11-3.89-.13-7.78-.14-11.67,0-1.3,0-2.6,0-3.91,0-3.89-.03-7.79-.16-11.68-.04-1.3-.1-2.59-.16-3.89-.2-3.87-.4-7.74-.57-11.61-.06-1.29-.11-2.58-.16-3.88-.2-5.17-.33-10.34-.34-15.5-.02-10.29-.03-20.57-.04-30.86,0-2.36-.46-7.39.84-10.35.43-.98,1.06-1.74,1.96-2.08,1.75-.67,3.62-1.16,5.53-1.52,3.19-.61,6.5-.87,9.59-1.09,9.41-.65,20.46-1.1,28.11,5.41,2.75,2.33,4.7,5.25,5.91,8.44.8,2.13,1.27,4.38,1.41,6.68.04.57.05,1.15.04,1.72,0,.58-.03,1.15-.08,1.73-.18,2.31-.69,4.6-1.5,6.8-1.74,4.7-4.84,8.91-8.72,12.07-2.35,1.91-4.87,3.11-7.5,4.13-.58.23-1.17.44-1.77.66-.59.21-1.19.43-1.8.64-.9.32-1.82.65-2.74,1.01-.35.13-.68.29-1,.46-.31.18-.6.37-.85.59-.25.22-.45.47-.6.73-.34.63-.37,1.4.12,2.32.15.28.33.52.54.74.21.21.45.4.71.56.52.32,1.13.53,1.77.67.16.04.32.07.48.1.48.08.96.13,1.44.16.66.04,1.3.05,1.85.06h0c2.53.05,5.05-.22,7.57-.62.36-.06.72-.12,1.08-.18,1.44-.25,3-.79,4.34-1.06,1.43-.28,10.72-4.53,12.1-4.91,3.51-.96-4.97,1.48-.5.12.34-.1,5.18-1.6,7.77-1.48.77.04,3.46.11,4.22.27s1.5.34,2.24.55c.71.2,1.41.44,2.1.7,2.06.79,2.86,1.08,4.66,2.34,3.19,2.24,7.05,5.9,9.13,9.22.52.83,1,1.69,1.44,2.56.87,1.75,1.58,3.55,2.14,5.4.19.62.36,1.23.51,1.86.6,2.47.94,4.99,1.03,7.52,0,.03,0,.06,0,.09.13,4.15-.44,8.31-1.66,12.26-.49,1.58-1.08,3.13-1.78,4.63-.35.75-.72,1.49-1.12,2.22-.49.89-1.02,1.77-1.59,2.62-.57.85-1.17,1.67-1.82,2.47-.62.77-1.28,1.51-1.96,2.23-.03.03-.05.06-.08.08,0,0-.01.01-.02.02-1,1.04-2.09,2.01-3.23,2.92-.08.06-.15.12-.23.18-.12.09-.25.18-.37.27-.78.59-1.58,1.14-2.41,1.65-.96.58-1.95,1.11-2.97,1.59-1.02.47-2.06.89-3.13,1.25-1.06.36-2.15.66-3.25.9-.58.13-1.17.23-1.76.31s-1.2.14-1.8.19c-.91.07-1.82.11-2.71.15-.3.01-.6.02-.89.03-.09,0-.19,0-.3.01-.21.01-.44.03-.69.04-.25.02-.51.03-.78.04-.13,0-.27,0-.41.01h0M86.07,132.8h0"/>
    <path class="cls-5" d="M126.86,59.2c-3.23-2.33-6.54-4.68-10.37-5.9-2.03-.65-4.11-.98-6.22-1.24-1.03-.13-4.65.12-5.3-.61-.59-.67.78-3.9.93-4.7.28-1.54.33-3.08.3-4.63-.1-5.32-1.04-10.6-2.77-15.64-.06-.18-.13-.36-.19-.54C97.94,10.93,80.26-.67,64.34.03c-6.4.28-12.8.67-19.2,1.07-4.07.25-8.15.39-12.2.77-3.93.36-9.3.03-12.82,2.01-7.05,3.96-7.45,13.03-7.81,20.12,0,.18-.01.35,0,.52l2.92,116.45c.19,3.42,1.12,6.58,3.52,9.12,2.77,2.93,6.04,3.53,9.9,3.88,4.38.4,8.65.41,13.03.46l48.54-.81c.95-.05,1.89-.11,2.83-.18h0c2.8-.22,5.55-.6,8.31-1.36,8.08-2.23,15.58-4.99,22.39-10.01,6.55-4.83,12.12-11.12,16.06-18.24,8.03-14.53,9.33-32.72,1.81-47.72-3.46-6.9-8.52-12.39-14.76-16.9ZM57.11,134.4c-5.29,0-10.55.07-15.84-.21-1.89-.1-4.56.24-6.35-.38,0,0,0,0,0,0-.3-.1-.54-.25-.75-.44-.2-.19-.36-.41-.48-.65-.15-.29-.24-.62-.31-.97-.13-.7-.13-1.46-.13-2.15,0-.23,0-.45,0-.66-.11-3.89-.13-7.78-.14-11.67,0-1.3,0-2.6,0-3.91,0-3.89-.03-7.79-.16-11.68-.04-1.3-.1-2.59-.16-3.89-.2-3.87-.4-7.74-.57-11.61-.06-1.29-.11-2.58-.16-3.88-.2-5.17-.33-10.34-.34-15.5-.02-10.29-.03-20.57-.04-30.86,0-2.36-.46-7.39.84-10.35.43-.98,1.06-1.74,1.96-2.08,1.75-.67,3.62-1.16,5.53-1.52,3.19-.61,6.5-.87,9.59-1.09,9.41-.65,20.46-1.1,28.11,5.41,2.75,2.33,4.7,5.25,5.91,8.44.8,2.13,1.27,4.38,1.41,6.68.04.57.05,1.15.04,1.72,0,.58-.03,1.15-.08,1.73-.18,2.31-.69,4.6-1.5,6.8-1.74,4.7-4.84,8.91-8.72,12.07-2.35,1.91-4.87,3.11-7.5,4.13-.58.23-1.17.44-1.77.66-.59.21-1.19.43-1.8.64-.9.32-1.82.65-2.74,1.01-.35.13-.68.29-1,.46-.31.18-.6.37-.85.59-.25.22-.45.47-.6.73-.34.63-.37,1.4.12,2.32.15.28.33.52.54.74.21.21.45.4.71.56.52.32,1.13.53,1.77.67.16.04.32.07.48.1.48.08.96.13,1.44.16.66.04,1.3.05,1.85.06h0c2.53.05,5.05-.22,7.57-.62.36-.06.72-.12,1.08-.18,1.44-.25,3-.79,4.34-1.06,1.43-.28,10.72-4.53,12.1-4.91,3.51-.96-4.97,1.48-.5.12.34-.1,5.18-1.6,7.77-1.48.77.04,3.46.11,4.22.27s1.5.34,2.24.55c.71.2,1.41.44,2.1.7,2.06.79,2.86,1.08,4.66,2.34,3.19,2.24,7.05,5.9,9.13,9.22.52.83,1,1.69,1.44,2.56.87,1.75,1.58,3.55,2.14,5.4.19.62.36,1.23.51,1.86.6,2.47.94,4.99,1.03,7.52,0,.03,0,.06,0,.09.13,4.15-.44,8.31-1.66,12.26-.49,1.58-1.08,3.13-1.78,4.63-.35.75-.72,1.49-1.12,2.22-.49.89-1.02,1.77-1.59,2.62-.57.85-1.17,1.67-1.82,2.47-.62.77-1.28,1.51-1.96,2.23-.03.03-.05.06-.08.08,0,0-.01.01-.02.02-1,1.04-2.09,2.01-3.23,2.92-.08.06-.15.12-.23.18-.12.09-.25.18-.37.27-.78.59-1.58,1.14-2.41,1.65-.96.58-1.95,1.11-2.97,1.59-1.02.47-2.06.89-3.13,1.25-1.06.36-2.15.66-3.25.9-.58.13-1.17.23-1.76.31s-1.2.14-1.8.19c-.91.07-1.82.11-2.71.15-.3.01-.6.02-.89.03-.09,0-.19,0-.3.01-.21.01-.44.03-.69.04-.25.02-.51.03-.78.04-.13,0-.27,0-.41.01h0M88.91,132.8h0"/>
  </g>
</svg>