<?xml version="1.0" encoding="UTF-8"?>
<svg id="Calque_2" data-name="Calque 2" xmlns="http://www.w3.org/2000/svg" viewBox="0 0 157.98 154.64">
  <defs>
    <style>
      .cls-1 {
        fill: #f88356;
      }

      .cls-2, .cls-3 {
        fill: none;
      }

      .cls-4 {
        fill: #fcc129;
      }

      .cls-3 {
        stroke: #f88356;
        stroke-linecap: round;
        stroke-linejoin: round;
      }
    </style>
  </defs>
  <g id="Mono">
    <g>
      <path class="cls-2" d="M111.36,83.18c.87,1.75,1.58,3.55,2.14,5.4-.56-1.85-1.27-3.65-2.14-5.4Z"/>
      <path class="cls-2" d="M30.9,133.24c5.29.28,10.57.22,15.87.21,10-.01,20.02,1.36,29.94-.42l-52.16-.16c1.79.62,4.47.28,6.36.38Z"/>
      <path class="cls-2" d="M115.05,98.05c.13,4.15-.44,8.31-1.66,12.26,1.22-3.95,1.79-8.11,1.66-12.26Z"/>
      <path class="cls-2" d="M113.39,110.31c-.49,1.58-1.08,3.13-1.78,4.63.7-1.5,1.29-3.05,1.78-4.63Z"/>
      <path class="cls-2" d="M105.02,124.57c-1.01,1.04-2.09,2.01-3.24,2.92,1.15-.91,2.23-1.88,3.24-2.92Z"/>
      <path class="cls-2" d="M109.92,80.62c.52.83,1,1.69,1.44,2.56-.44-.88-.92-1.73-1.44-2.56Z"/>
      <path class="cls-4" d="M113.02,53.88c.16,2.12,1.28,1.27,2.44.16,3.09-2.95,6.13-5.96,9.33-8.8,3.08-2.74,5.81-5.77,8.61-8.78,2.46-2.64,4.97-5.78,5.25-9.56.04-3.56-3.02-5.55-6.28-5.97-3.66-.47-6.45,3.27-8.56,5.7-5.24,6.07-7.92,13.46-9.63,21.22-.4,1.82-1.31,4.15-1.17,6.02Z"/>
      <path class="cls-4" d="M123.46,59.54c-2.43,3.37,3.96,1.61,5.52,1.32,3.6-.67,7.2-1.78,10.71-2.8,3.15-.92,6.39-2.22,9.12-4.08,2.23-1.52,5.08-4.66,4.79-7.6.21-2.83-1.56-5-4.25-5.66-3.63-.9-7.39,1.09-10.15,3.29-3.1,2.48-5.93,5.36-8.82,8.07-2.42,2.27-4.96,4.76-6.92,7.46Z"/>
      <path class="cls-4" d="M103.42,45.41c.13.76.13,2.91,1.08,2.89.55-.01,1.5-2.5,1.7-2.88,2.71-5.04,6.99-10.6,6.96-16.55.04-2.21-.25-5.1-1.79-6.82-1.74-1.94-4.93-2.03-7.11-.77-5.13,2.97-3.85,10.14-2.76,14.77.73,3.1,1.38,6.2,1.94,9.34Z"/>
      <path class="cls-4" d="M157.92,71.74c-.62-4.88-8.4-4.53-11.83-3.84-2.61.53-5.09,1.69-7.56,2.69-1.07.43-5.3,1.54-3.98,2.98.53.59,2.81,1.01,3.5,1.28,1.27.49,2.54.99,3.81,1.46,2.47.92,4.97,1.66,7.62,1.76,3.6-.61,9.08-1.27,8.43-6.33Z"/>
      <path class="cls-4" d="M114.01,90.44c-.15-.62-.32-1.24-.51-1.86-.56-1.85-1.27-3.65-2.14-5.4-.44-.88-.92-1.73-1.44-2.56-2.08-3.32-4.81-6.23-8-8.47-1.8-1.26-3.74-2.31-5.81-3.1-.69-.26-1.39-.5-2.1-.7-.74-.21-1.49-.39-2.24-.55s-1.52-.28-2.29-.37c-2.57-.3-5.18-.25-7.71.23-3.33.64-8.07,2.02-9.4,5.57.38.91,2.91,1.05,3.75,1.33,1.58.52,3.11,1.23,4.55,2.05,2.69,1.54,5.04,3.59,7.02,5.97,4.02,4.83,6.16,11.88,6.4,18.1.51,13.8-5.07,25.61-17.39,32.34.05.09.12.18.19.26.07.08.15.15.24.22.69.52,1.83.63,2.93.61h0c.14,0,.27,0,.41-.01.27,0,.53-.02.78-.04.25-.02.48-.03.69-.04.11,0,.2-.01.3-.01.29-.01.59-.02.89-.03.9-.04,1.81-.08,2.72-.15.61-.05,1.21-.11,1.81-.19s1.19-.18,1.76-.31c1.1-.24,2.19-.54,3.26-.9,1.07-.36,2.11-.78,3.13-1.25,1.02-.47,2.01-1,2.97-1.59.83-.51,1.63-1.06,2.41-1.65.12-.09.25-.18.37-.27.08-.06.15-.12.23-.18,1.15-.91,2.23-1.88,3.24-2.92,0,0,.01-.01.02-.02.03-.03.05-.06.08-.08.69-.72,1.35-1.46,1.97-2.23.64-.8,1.25-1.62,1.82-2.47.57-.85,1.1-1.72,1.59-2.62.4-.73.77-1.46,1.12-2.22.7-1.5,1.29-3.05,1.78-4.63,1.22-3.95,1.79-8.11,1.66-12.26,0-.03,0-.06,0-.09-.08-2.53-.42-5.05-1.03-7.52Z"/>
      <path class="cls-4" d="M77.59,96.26c-3.34-.42-6.76,3.07-9.53,4.51-3.4,1.77-7.35,4.15-11.22,4.45-3.85.29-7.49-1.01-10.74-2.97-1.81-1.09-3.55-2.3-5.31-3.45-1.43-.93-3.04-2.42-4.87-2.25-4.15.38-3.7,4.52-1.54,6.81,5.11,5.42,12.5,8.82,19.9,9.14,8.46-.95,17.06-4.11,23.61-9.71,1.14-.97,2.69-2.32,2.56-3.97-.12-1.5-1.47-2.39-2.85-2.56Z"/>
      <path class="cls-1" d="M114.12,59.42c-3.21-2.33-6.51-4.68-10.33-5.9-2.02-.65-4.1-.98-6.19-1.24-1.03-.13-4.63.12-5.27-.61-.59-.67.78-3.9.93-4.7.38-2.1.34-4.19.25-6.31-.17-4.02-.86-8.16-2.06-12-2.4-7.61-5.75-14.56-11.6-20.1C74.24,3.27,65.77-.23,58.07.01c-8.46.27-16.9.78-25.35,1.31-4.05.25-8.11.39-12.16.77-3.91.36-9.26.03-12.77,2.01C.68,8.1.37,17.35,0,24.47l2.92,116.71c.19,3.42,1.11,6.58,3.51,9.12,2.76,2.93,6.01,3.53,9.86,3.88,4.36.4,8.61.41,12.98.46l48.35-.81c.95-.05,1.89-.11,2.82-.18h0c2.79-.22,5.53-.6,8.28-1.36,8.05-2.23,15.52-4.99,22.3-10.01,6.52-4.83,12.08-11.12,15.99-18.24,8-14.53,9.29-32.72,1.81-47.72-3.44-6.9-8.49-12.39-14.7-16.9ZM113.39,110.31c-.49,1.58-1.08,3.13-1.78,4.63-.35.75-.72,1.49-1.12,2.22-.49.89-1.02,1.77-1.59,2.62-.57.85-1.17,1.67-1.82,2.47-.62.77-1.28,1.51-1.97,2.23-.03.03-.05.06-.08.08,0,0-.01.01-.02.02-1.01,1.04-2.09,2.01-3.24,2.92-.08.06-.15.12-.23.18-.12.09-.25.18-.37.27-.78.59-1.58,1.14-2.41,1.65-.96.58-1.95,1.11-2.97,1.59-1.02.47-2.06.89-3.13,1.25-1.07.36-2.15.66-3.26.9-.58.13-1.17.23-1.76.31s-1.2.14-1.81.19c-.91.07-1.82.11-2.72.15-.3.01-.6.02-.89.03-.09,0-.19,0-.3.01-.21.01-.44.03-.69.04-.25.02-.51.03-.78.04-.13,0-.27,0-.41.01h0c-1.09.01-2.23-.09-2.93-.61-.09-.07-.17-.14-.24-.22-.07-.08-.14-.16-.19-.26h0s0,0,0,0c-9.93,1.78-19.94.41-29.94.42-5.3,0-10.57.07-15.87-.21-1.89-.1-4.57.24-6.36-.38,0,0,0,0,0,0-.3-.1-.55-.25-.75-.44-.2-.19-.36-.41-.48-.65-.15-.29-.24-.62-.31-.97-.13-.7-.13-1.46-.13-2.15,0-.23,0-.45,0-.66-.11-3.89-.13-7.78-.14-11.67,0-1.3,0-2.6,0-3.91,0-3.89-.03-7.79-.16-11.68-.04-1.3-.1-2.59-.16-3.89-.2-3.87-.4-7.74-.57-11.61-.06-1.29-.11-2.58-.16-3.88-.2-5.17-.33-10.34-.34-15.5-.02-10.29-.03-20.57-.04-30.86,0-2.36-.46-7.39.84-10.35.43-.98,1.06-1.74,1.97-2.08,1.75-.67,3.63-1.16,5.54-1.52,3.19-.61,6.51-.87,9.61-1.09,9.42-.65,20.5-1.1,28.16,5.41,2.75,2.33,4.71,5.25,5.92,8.44.8,2.13,1.27,4.38,1.41,6.68.04.57.05,1.15.04,1.72,0,.58-.03,1.15-.08,1.73-.18,2.31-.69,4.6-1.51,6.8-1.75,4.7-4.85,8.91-8.73,12.07-2.35,1.91-4.87,3.11-7.51,4.13-.59.23-1.18.44-1.77.66-.6.21-1.2.43-1.8.64-.91.32-1.82.65-2.74,1.01-.35.13-.69.29-1,.46-.31.18-.6.37-.85.59-.25.22-.45.47-.6.73-.34.63-.37,1.4.12,2.32.15.28.33.52.54.74.21.21.45.4.71.56.52.32,1.13.53,1.77.67.16.04.32.07.49.1.48.08.97.13,1.44.16.66.04,1.3.05,1.85.06h0c2.53.05,5.06-.22,7.58-.62.36-.06.72-.12,1.08-.18,1.44-.25,2.88-.53,4.31-.81,1.43-.28,2.85-.56,4.27-.81,1.33-3.55,6.07-4.93,9.4-5.57,2.52-.48,5.14-.53,7.71-.23.77.09,1.54.21,2.29.37s1.51.34,2.24.55c.71.2,1.41.44,2.1.7,2.06.79,4.01,1.84,5.81,3.1,3.2,2.24,5.92,5.15,8,8.47.52.83,1,1.69,1.44,2.56.87,1.75,1.58,3.55,2.14,5.4.19.62.36,1.23.51,1.86.61,2.47.95,4.99,1.03,7.52,0,.03,0,.06,0,.09.13,4.15-.44,8.31-1.66,12.26Z"/>
      <path class="cls-3" d="M55.13,75.65h0c-.56-.01-1.19-.02-1.85-.06"/>
      <path class="cls-3" d="M48.2,71.04c.15-.27.35-.51.6-.73"/>
      <path class="cls-3" d="M22.14,24.64c.43-.98,1.06-1.74,1.97-2.08,1.75-.67,3.63-1.16,5.54-1.52"/>
      <path class="cls-3" d="M48.8,70.31c.25-.22.53-.42.85-.59"/>
      <path class="cls-3" d="M74.7,43.93c.05-.58.07-1.15.08-1.73"/>
      <path class="cls-3" d="M23.79,132.42c-.2-.19-.36-.41-.48-.65"/>
      <path class="cls-3" d="M21.67,81.35c-.2-5.17-.33-10.34-.34-15.5"/>
      <path class="cls-3" d="M55.19,67.6c.6-.21,1.19-.43,1.77-.66"/>
      <path class="cls-3" d="M23,130.8c-.13-.7-.13-1.46-.13-2.15"/>
      <path class="cls-3" d="M55.19,67.6c-.6.21-1.2.43-1.8.64"/>
      <path class="cls-3" d="M105.02,124.57s.01-.01.02-.02"/>
      <path class="cls-3" d="M107.08,122.24c-.62.77-1.28,1.51-1.97,2.23"/>
      <path class="cls-3" d="M96.11,69.05c2.06.79,4.01,1.84,5.81,3.1"/>
      <path class="cls-3" d="M89.47,67.44c.77.09,1.54.21,2.29.37"/>
      <path class="cls-3" d="M89.41,133.33c-.58.13-1.17.23-1.76.31"/>
      <path class="cls-3" d="M80.47,134.1c-.13,0-.27,0-.41.01"/>
      <path class="cls-3" d="M81.24,134.06c-.25.02-.51.03-.78.04"/>
      <path class="cls-3" d="M81.93,134.02c-.21.01-.44.03-.69.04"/>
      <path class="cls-3" d="M115.04,97.96s0,.06,0,.09"/>
      <path class="cls-3" d="M80.06,134.11c-1.09.01-2.23-.09-2.93-.61"/>
      <path class="cls-3" d="M87.64,133.63c-.6.08-1.2.14-1.81.19"/>
      <path class="cls-3" d="M85.84,133.82c-.91.07-1.82.11-2.72.15"/>
    </g>
  </g>
</svg>