<?xml version="1.0" encoding="UTF-8" standalone="no"?>
<!-- Created with Inkscape (http://www.inkscape.org/) -->

<svg
   width="339.94818"
   height="93.541046"
   viewBox="0 0 89.94462 24.749402"
   version="1.1"
   id="svg20562"
   inkscape:version="1.2.2 (732a01da63, 2022-12-09)"
   sodipodi:docname="test6.svg"
   xml:space="preserve"
   inkscape:export-filename="logoFinalee"
   inkscape:export-xdpi="96"
   inkscape:export-ydpi="96"
   xmlns:inkscape="http://www.inkscape.org/namespaces/inkscape"
   xmlns:sodipodi="http://sodipodi.sourceforge.net/DTD/sodipodi-0.dtd"
   xmlns="http://www.w3.org/2000/svg"
   xmlns:svg="http://www.w3.org/2000/svg"><sodipodi:namedview
     id="namedview20564"
     pagecolor="#ffffff"
     bordercolor="#000000"
     borderopacity="0.25"
     inkscape:showpageshadow="2"
     inkscape:pageopacity="0.0"
     inkscape:pagecheckerboard="0"
     inkscape:deskcolor="#d1d1d1"
     inkscape:document-units="mm"
     showgrid="false"
     inkscape:zoom="2.9259414"
     inkscape:cx="161.48649"
     inkscape:cy="25.974546"
     inkscape:window-width="2560"
     inkscape:window-height="1529"
     inkscape:window-x="-8"
     inkscape:window-y="-8"
     inkscape:window-maximized="1"
     inkscape:current-layer="layer1" /><defs
     id="defs20559" /><g
     inkscape:label="Calque 1"
     inkscape:groupmode="layer"
     id="layer1"
     transform="translate(-12.213129,-6.2560121)"><path
       style="display:none;fill:none;fill-opacity:1;fill-rule:evenodd;stroke:#ffc4c4;stroke-width:0.175;stroke-linecap:round;stroke-dasharray:none;stroke-opacity:1;paint-order:fill markers stroke"
       d="M 11.108171,6.1900896 C 9.2429052,6.6561806 8.7488872,10.129416 13.122324,8.268183 l 1.118973,-0.575471 2.653567,-1.9502124 1.055032,-0.831236 -1.566563,3.7085984 c 0,0 -0.47956,1.662475 -1.40671,1.310796 -0.92715,-0.351676 -0.133035,-1.502622 -0.133035,-1.502622 0.719077,-1.047505 3.520233,-2.0225004 4.768783,-2.0780934 1.69312,-0.05617 4.750796,-0.502001 5.435016,-2.33386"
       id="path23860"
       sodipodi:nodetypes="ccccccsccc" /><path
       style="fill:#850e30;fill-opacity:1;stroke-width:0.0614727"
       d="m 42.265413,25.209874 c 0.0159,-0.06784 0.114049,-0.107764 0.327085,-0.133048 1.092522,-0.129669 1.578721,-0.475421 1.755918,-1.248689 0.07977,-0.348115 0.118469,-7.645188 0.04255,-8.022453 -0.08382,-0.416502 -0.257735,-0.703649 -0.587556,-0.970109 -0.309121,-0.249736 -0.846708,-0.506603 -1.060254,-0.506603 -0.141067,0 -0.287069,-0.101485 -0.287069,-0.199542 0,-0.04108 0.286644,-0.101362 0.762897,-0.16045 1.433303,-0.177823 2.457985,-0.371797 3.563817,-0.674635 0.608079,-0.166525 1.132299,-0.302773 1.164932,-0.302773 0.03263,0 0.107289,0.03941 0.165898,0.08757 0.08956,0.0736 0.106562,0.26029 0.106562,1.170225 0,0.691617 0.02473,1.082656 0.06847,1.082656 0.03766,0 0.121545,-0.05643 0.186408,-0.12538 0.218865,-0.232689 1.064664,-0.887239 1.467549,-1.135713 0.609916,-0.376156 1.432429,-0.721941 2.109001,-0.886626 0.493797,-0.120197 0.798046,-0.154133 1.593606,-0.177756 0.865579,-0.02571 1.056351,-0.0143 1.593606,0.09525 1.273319,0.259626 2.29168,0.864267 2.723852,1.617256 0.114338,0.199217 0.227806,0.431172 0.25215,0.515455 0.05364,0.185734 0.200037,0.197623 0.343064,0.02787 0.0581,-0.06897 0.35736,-0.334779 0.665023,-0.590709 0.892073,-0.742077 1.91384,-1.247995 3.08281,-1.526424 0.453452,-0.108004 0.686436,-0.125777 1.647077,-0.125645 1.269691,1.68e-4 1.666568,0.06394 2.498379,0.401348 0.664544,0.269566 1.336114,0.807584 1.620337,1.298111 0.48399,0.835294 0.480428,0.800862 0.49671,4.800092 0.0079,1.941938 0.04372,3.743942 0.07957,4.004457 0.100609,0.730873 0.35389,1.121831 0.865665,1.336228 0.222548,0.09323 0.769716,0.206232 1.152129,0.237937 0.09804,0.0082 0.178324,0.05488 0.191459,0.111517 0.02134,0.092 -0.209039,0.09751 -4.073742,0.09751 -2.252996,0 -4.114599,-0.01499 -4.136894,-0.03331 -0.09037,-0.07427 0.04434,-0.189589 0.221483,-0.189589 0.3338,0 1.080141,-0.222873 1.315858,-0.392944 0.276044,-0.199165 0.44094,-0.469973 0.55812,-0.916593 0.114275,-0.435551 0.130075,-6.792989 0.01865,-7.500083 -0.140278,-0.890101 -0.68423,-1.557435 -1.553666,-1.906075 -0.423252,-0.169723 -0.473149,-0.176576 -1.25454,-0.172309 -0.894159,0.0049 -1.191575,0.07034 -1.925824,0.423866 -0.44564,0.214568 -1.100456,0.736827 -1.417611,1.13064 l -0.224034,0.278186 0.02081,3.90075 c 0.0207,3.881704 0.02154,3.902227 0.171277,4.20329 0.283319,0.569646 0.789578,0.855669 1.671509,0.944359 0.254453,0.02559 0.351842,0.06053 0.36864,0.132295 0.02154,0.09201 -0.209523,0.09751 -4.089804,0.09751 -3.818115,0 -4.111059,-0.0068 -4.090651,-0.0938 0.01623,-0.06923 0.146823,-0.111084 0.498678,-0.159802 0.613605,-0.08496 1.000861,-0.250027 1.250236,-0.532914 0.409908,-0.464994 0.409299,-0.45828 0.406683,-4.488078 -0.0018,-2.792121 -0.02342,-3.749822 -0.09043,-4.006224 -0.309985,-1.186199 -1.299741,-1.864187 -2.721422,-1.864187 -1.222574,0 -2.512285,0.617835 -3.291597,1.576835 l -0.274598,0.337913 0.02102,3.848907 c 0.01969,3.604888 0.02913,3.867442 0.148844,4.141237 0.250129,0.572032 0.82773,0.929766 1.632291,1.010948 0.247531,0.02498 0.344278,0.06025 0.36099,0.131641 0.02154,0.092 -0.207909,0.09751 -4.055897,0.09751 -3.838448,0 -4.077389,-0.0057 -4.056013,-0.09692 z"
       id="path9766"
       inkscape:export-filename="final\logo.svg"
       inkscape:export-xdpi="96"
       inkscape:export-ydpi="96" /><path
       style="fill:#850e30;fill-opacity:1;stroke-width:0.0614727"
       d="m 71.897161,25.190429 c -0.132575,-0.06737 0.007,-0.214593 0.203462,-0.214593 0.332376,0 0.989813,-0.166717 1.258251,-0.319075 0.292289,-0.165895 0.533222,-0.481253 0.650277,-0.851151 0.05916,-0.186925 0.07441,-2.137481 0.05994,-7.662186 l -0.01941,-7.4114247 -0.189859,-0.317707 c -0.212855,-0.356189 -0.613205,-0.635004 -1.16975,-0.814649 -0.574974,-0.185592 -0.454299,-0.27363 0.545854,-0.398216 1.489993,-0.185602 2.596957,-0.415175 3.613588,-0.749415 0.631953,-0.20777 0.947838,-0.249012 0.996636,-0.13012 0.01572,0.03831 0.04174,3.9439367 0.0578,8.6791697 0.02302,6.783909 0.04768,8.662684 0.116293,8.860274 0.122484,0.352712 0.361563,0.644701 0.658092,0.803729 0.24531,0.131557 0.852166,0.284931 1.270497,0.321096 0.127683,0.01104 0.211126,0.05335 0.225164,0.1142 0.02094,0.09074 -0.229689,0.09756 -4.091672,0.11145 -2.262687,0.0082 -4.146007,-0.0015 -4.185155,-0.02138 z"
       id="path9764" /><path
       style="fill:#850e30;fill-opacity:1;stroke-width:0.0911622"
       d="m 16.641954,30.536075 c -1.352079,-0.23861 -2.621477,-0.917309 -3.372274,-1.803023 -0.204038,-0.240705 -0.515023,-0.75279 -0.691075,-1.137964 -0.388009,-1.053271 -0.530245,-2.054718 -0.110759,-3.054665 0.45047,-1.056029 1.490799,-1.69397 2.591673,-1.589243 1.288313,0.122558 2.033576,1.126493 1.943084,2.617495 -0.03054,0.502998 -0.09756,0.702079 -0.431878,1.282559 -0.344442,0.598072 -0.395337,0.754353 -0.39266,1.205717 0.0018,0.290785 0.06587,0.642483 0.146009,0.800648 0.533067,1.051969 1.780947,1.462547 2.810012,0.924555 0.750444,-0.392331 1.13725,-0.994203 1.40833,-2.191382 0.144041,-0.636133 0.160342,-1.491037 0.189515,-9.938881 0.02842,-8.2289887 0.01659,-9.2850127 -0.107889,-9.6269557 C 20.375526,7.3422459 19.838684,6.9961835 18.850771,6.8818402 18.377438,6.8270529 18.304481,6.792192 18.279673,6.6089361 l -0.02843,-0.2100947 h 4.863091 4.86309 l -0.02843,0.2100947 c -0.0252,0.1859653 -0.09787,0.218137 -0.63276,0.2801094 -0.918101,0.1063733 -1.360105,0.388108 -1.721328,1.0971804 -0.15827,0.3106806 -0.168724,0.7577981 -0.211752,9.0574261 -0.328651,5.210185 1.185128,11.226615 -4.178305,13.230696 -1.076217,0.386422 -3.174363,0.506771 -4.562903,0.261727 z"
       id="path17234"
       sodipodi:nodetypes="ssccssscssssssscccsssccss" /><path
       style="fill:#850e30;fill-opacity:1;stroke-width:0.0918633"
       d="m 33.287826,25.965692 c -2.252014,-0.319748 -4.315453,-1.634607 -5.27766,-3.363015 -0.305689,-0.549108 -0.605753,-1.511825 -0.726075,-2.329517 -0.272986,-1.855164 0.448087,-3.938533 1.870837,-5.405344 0.904498,-0.932508 1.92349,-1.526599 3.223377,-1.879288 1.042605,-0.282883 3.435798,-0.300406 4.359865,-0.03193 2.45083,0.712076 3.95571,2.297296 4.168134,4.390654 0.03934,0.387672 0.05475,0.737257 0.03427,0.776856 -0.02049,0.0396 -2.287039,0.072 -5.036784,0.072 -5.774261,0 -5.173101,-0.137858 -5.011722,1.149301 0.249671,1.991381 1.156485,3.423083 2.706684,4.273387 0.772093,0.423505 1.248961,0.542321 2.39546,0.596852 0.935223,0.04448 1.212195,0.02201 1.829382,-0.148434 1.052394,-0.29063 1.815665,-0.728331 2.406644,-1.3801 0.506306,-0.558387 0.683464,-0.667767 0.683464,-0.421978 0,0.246855 -0.704483,1.287495 -1.234094,1.822963 -1.47951,1.495872 -3.956202,2.2234 -6.39179,1.877587 z m 4.120851,-8.504885 c 0.168327,-0.222275 0.141264,-1.207994 -0.05097,-1.856671 -0.301915,-1.018747 -0.69215,-1.530717 -1.545244,-2.027291 -0.345462,-0.201089 -0.509586,-0.228676 -1.359846,-0.228563 -0.934039,1.24e-4 -0.985865,0.01131 -1.521884,0.328575 -0.305203,0.180645 -0.728302,0.539052 -0.940222,0.796457 -0.511679,0.621505 -0.922281,1.764656 -0.922281,2.567713 v 0.579092 h 3.109905 c 2.790143,0 3.122307,-0.01638 3.230549,-0.159312 z"
       id="path31197" /><path
       style="fill:#850e30;fill-opacity:1;stroke-width:0.0850432"
       d="m 81.441698,30.901374 c -0.967536,-0.222777 -1.629655,-0.762747 -1.737835,-1.417236 -0.177697,-1.075095 0.446167,-1.920317 1.415783,-1.918111 0.814073,0.0019 1.437344,0.414979 1.701089,1.127536 0.265652,0.717743 0.593724,1.045531 1.046411,1.045531 0.411787,0 1.272709,-0.638152 1.682751,-1.24732 0.340483,-0.505844 1.429567,-2.754407 1.429567,-2.951552 0,-0.12277 -3.787363,-7.486071 -5.358389,-10.417652 -0.515012,-0.961033 -0.991026,-1.367276 -1.707408,-1.457153 -0.336772,-0.04226 -0.381461,-0.07357 -0.405139,-0.283934 l -0.02659,-0.236443 h 3.910127 c 2.15058,0 3.970014,0.02349 4.043192,0.05219 0.1721,0.0675 0.1721,0.343996 0,0.411499 -0.07318,0.0287 -0.261849,0.05219 -0.419257,0.05219 -0.196915,0 -0.37131,0.07772 -0.558995,0.249139 -0.470152,0.429381 -0.417985,0.643768 0.73469,3.019303 0.92813,1.912773 1.349461,2.644796 1.187006,2.062289 -0.173358,-0.621586 -0.242376,-1.107297 -0.188515,-1.326658 l 0.06027,-0.24551 0.169883,0.350976 c 0.163478,0.337734 0.380974,0.594479 0.443987,0.524114 0.01666,-0.01857 -0.0014,-0.265893 -0.04025,-0.549625 -0.08608,-0.630333 0.01773,-1.454465 0.238579,-1.89454 l 0.164516,-0.327774 0.186804,0.573786 c 0.102748,0.315581 0.221572,0.573784 0.264067,0.573784 0.04247,0 0.07726,-0.304329 0.07726,-0.676284 0,-0.599209 0.0331,-0.743899 0.290367,-1.269546 0.261414,-0.534102 1.713691,-2.3533 1.878471,-2.35306 0.0331,4.7e-5 0.16756,0.19536 0.2987,0.434026 0.13114,0.238666 0.4011,0.681891 0.59993,0.984945 l 0.36148,0.551005 -0.75688,1.013992 c -1.877526,2.515357 -3.542833,5.330842 -4.228601,7.149178 -0.360965,0.957114 -0.370652,1.453006 -0.01351,0.690314 0.571211,-1.21976 1.822837,-3.43189 2.961901,-5.234877 1.44547,-2.287993 3.26275,-4.623976 5.57551,-7.166916 0.72495,-0.7971037 1.33281,-1.4903297 1.35082,-1.5405037 0.15244,-0.424977 -3.10333,2.8490787 -4.10595,4.1290077 -0.34265,0.437422 -0.64587,0.795311 -0.67382,0.795311 -0.028,0 -0.18259,-0.234016 -0.34363,-0.520038 -0.16104,-0.286021 -0.396,-0.701947 -0.52215,-0.924279 -0.12614,-0.222333 -0.23024,-0.468728 -0.23132,-0.547545 -0.003,-0.175997 1.22272,-1.359379 2.52153,-2.4356037 2.39665,-1.985909 4.10931,-2.719961 5.89188,-2.525275 0.67849,0.0741 1.12586,0.276591 1.37944,0.624365 0.25112,0.34439 0.21851,0.998252 -0.0799,1.602252 -0.43584,0.8821227 -1.57784,2.5026707 -2.45419,3.4826027 -0.71642,0.801113 -0.97439,1.028419 -1.42383,1.254582 -0.53522,0.269322 -0.58492,0.277511 -1.99423,0.328527 l -1.44532,0.05232 0.91719,0.07315 c 0.90335,0.07207 2.18236,0.03039 2.55261,-0.08316 0.48747,-0.149487 0.0131,0.915918 -0.71429,1.604264 -0.48097,0.455151 -0.7284,0.576334 -1.70405,0.834557 l -0.29441,0.07792 0.25235,0.106687 c 0.18595,0.07861 0.37409,0.08437 0.71499,0.02186 0.25445,-0.04666 0.47921,-0.06896 0.49945,-0.04956 0.0202,0.0194 -0.13116,0.211272 -0.33646,0.426391 -0.71575,0.749962 -1.94288,1.455307 -2.81847,1.62003 -0.83896,0.157835 -1.12977,0.241775 -1.12977,0.326104 0,0.06219 0.27186,0.07201 0.85548,0.03092 0.74153,-0.0522 0.84202,-0.04364 0.7544,0.06426 -0.18495,0.227793 -0.88486,0.469245 -1.77714,0.613073 -1.030411,0.166093 -1.507548,0.358448 -1.740429,0.701643 -0.09229,0.136006 -0.906583,1.736878 -1.809541,3.557496 -0.902957,1.820616 -1.776775,3.537733 -1.941826,3.815815 -0.650081,1.095287 -1.495031,1.885039 -2.569867,2.401996 -0.502917,0.241885 -0.653083,0.272129 -1.444487,0.290927 -0.535759,0.01273 -1.092837,-0.02728 -1.416047,-0.101708 z"
       id="path32675" /></g></svg>
